name C:\Users\u0150099\Documents\master_thesis\3dpredictsim\Results\debug\Fal_s1_mtj_sc_cspx10_oy_TrackAnkleQ_MTc_MTPm_k1_d01_MTJm_nl_MG_exp_table_d01_PF_Gefen2002_ls146_FDB_ig21_v2.mot
datacolumns 130
datarows 4
range 0.00000000 0.03388773
endheader
time	pelvis_tilt	pelvis_list	pelvis_rotation	pelvis_tx	pelvis_ty	pelvis_tz	hip_flexion_l	hip_adduction_l	hip_rotation_l	hip_flexion_r	hip_adduction_r	hip_rotation_r	knee_angle_l	knee_angle_r	ankle_angle_l	ankle_angle_r	subtalar_angle_l	subtalar_angle_r	mtj_angle_l	mtj_angle_r	mtp_angle_l	mtp_angle_r	lumbar_extension	lumbar_bending	lumbar_rotation	arm_flex_l	arm_add_l	arm_rot_l	arm_flex_r	arm_add_r	arm_rot_r	elbow_flex_l	elbow_flex_r	pro_sup_l	pro_sup_r	glut_med1_l/activation	glut_med2_l/activation	glut_med3_l/activation	glut_min1_l/activation	glut_min2_l/activation	glut_min3_l/activation	semimem_l/activation	semiten_l/activation	bifemlh_l/activation	bifemsh_l/activation	sar_l/activation	add_long_l/activation	add_brev_l/activation	add_mag1_l/activation	add_mag2_l/activation	add_mag3_l/activation	tfl_l/activation	pect_l/activation	grac_l/activation	glut_max1_l/activation	glut_max2_l/activation	glut_max3_l/activation	iliacus_l/activation	psoas_l/activation	quad_fem_l/activation	gem_l/activation	peri_l/activation	rect_fem_l/activation	vas_med_l/activation	vas_int_l/activation	vas_lat_l/activation	med_gas_l/activation	lat_gas_l/activation	soleus_l/activation	tib_post_l/activation	flex_dig_l/activation	flex_hal_l/activation	tib_ant_l/activation	per_brev_l/activation	per_long_l/activation	per_tert_l/activation	ext_dig_l/activation	ext_hal_l/activation	FDB_l/activation	ercspn_l/activation	intobl_l/activation	extobl_l/activation	glut_med1_r/activation	glut_med2_r/activation	glut_med3_r/activation	glut_min1_r/activation	glut_min2_r/activation	glut_min3_r/activation	semimem_r/activation	semiten_r/activation	bifemlh_r/activation	bifemsh_r/activation	sar_r/activation	add_long_r/activation	add_brev_r/activation	add_mag1_r/activation	add_mag2_r/activation	add_mag3_r/activation	tfl_r/activation	pect_r/activation	grac_r/activation	glut_max1_r/activation	glut_max2_r/activation	glut_max3_r/activation	iliacus_r/activation	psoas_r/activation	quad_fem_r/activation	gem_r/activation	peri_r/activation	rect_fem_r/activation	vas_med_r/activation	vas_int_r/activation	vas_lat_r/activation	med_gas_r/activation	lat_gas_r/activation	soleus_r/activation	tib_post_r/activation	flex_dig_r/activation	flex_hal_r/activation	tib_ant_r/activation	per_brev_r/activation	per_long_r/activation	per_tert_r/activation	ext_dig_r/activation	ext_hal_r/activation	FDB_r/activation	ercspn_r/activation	intobl_r/activation	extobl_r/activation	
          0.00000000	         -2.89067350	         -4.29416118	          8.73297256	          0.00000000	          0.89124389	         -0.00579840	        -10.75754283	         -3.41931998	         -5.40002743	         31.56327419	          2.22047433	         -9.28734007	        -23.07880813	        -12.44318851	          0.34042785	          0.23339712	        -15.66344512	        -11.13349204	          7.61905342	          7.01441154	         23.80465151	          3.52985270	         -4.36538545	          1.70919984	         -2.17220021	          9.69220394	        -13.59668172	         19.35373448	         -8.52051227	        -13.53980464	         10.87475202	         45.55091771	         14.75795421	         86.51662706	         86.51662706	          0.14463034	          0.05000006	          0.05000002	          0.24555745	          0.10486071	          0.05675833	          0.05000090	          0.05000010	          0.05000008	          0.05000006	          0.05000029	          0.16950346	          0.21788820	          0.05000050	          0.05006402	          0.10855845	          0.30585815	          0.05000145	          0.05000015	          0.05000064	          0.05000039	          0.05000021	          0.05941341	          0.34387059	          0.05000001	          0.05000013	          0.05000013	          0.56684808	          0.14601987	          0.14752057	          0.11714499	          0.33977260	          0.60228534	          0.12618244	          0.55704577	          0.96878060	          0.98853557	          0.05516514	          0.68237420	          0.57393886	          0.05000014	          0.05000001	          0.05000004	          0.81747509	          0.05000000	          0.05000001	          0.05000001	          0.05510646	          0.05941307	          0.05000011	          0.05941280	          0.05941282	          0.05000036	          0.17191099	          0.05941324	          0.05941321	          0.05941327	          0.11860087	          0.05000017	          0.05000008	          0.05000017	          0.05000024	          0.27018507	          0.07059886	          0.05000079	          0.05941328	          0.05915499	          0.13296289	          0.33522682	          0.14075023	          0.14075070	          0.15623801	          0.10800727	          0.07628681	          0.07059871	          0.05000002	          0.05000002	          0.05000002	          0.05000000	          0.05000000	          0.05000000	          0.05000007	          0.05000003	          0.05000007	          0.45048654	          0.08390060	          0.10625768	          0.31682096	          0.77701375	          0.65449818	          0.52735915	          0.09061448	          0.15950669	          0.08383704	
          0.01129591	         -2.89387317	         -4.34671600	          9.15325149	          0.01801881	          0.88922621	         -0.00514591	        -12.14477343	         -3.85674869	         -6.09292771	         31.83760484	          2.22061100	         -9.21341421	        -22.23786293	        -14.55861309	         -1.14656595	         -0.80110030	        -15.84265710	        -11.20858663	          7.34794993	          7.28872310	         25.23254065	          3.63172748	         -4.22850590	          1.81860538	         -2.34184463	          9.53095695	        -13.56337758	         19.38622162	         -9.71074686	        -13.49682868	         10.78898650	         46.90682944	         14.77129446	         86.51662706	         86.51662706	          0.12171557	          0.05000030	          0.05000046	          0.20665209	          0.08824694	          0.05000058	          0.05000053	          0.05000010	          0.05000018	          0.05000003	          0.05000040	          0.21261389	          0.37299444	          0.25958302	          0.19033013	          0.15198876	          0.25739934	          0.05012933	          0.05000034	          0.05004732	          0.05015150	          0.06833774	          0.05000023	          0.48238064	          0.05941321	          0.05000034	          0.05013938	          0.47703845	          0.13668981	          0.13509238	          0.11001228	          0.33371160	          0.58534921	          0.10804241	          0.46878912	          0.98219146	          0.99346033	          0.25399702	          0.64254982	          0.53910578	          0.45809064	          0.05000000	          0.05000003	          0.68795681	          0.07543713	          0.05000003	          0.05000005	          0.17036911	          0.05000004	          0.21608380	          0.05000014	          0.05000012	          0.18011666	          0.14467395	          0.05000001	          0.05000001	          0.05000002	          0.09981014	          0.07280433	          0.07815737	          0.05489477	          0.05899709	          0.32098949	          0.05941362	          0.07059656	          0.05000006	          0.05000005	          0.22074890	          0.43278754	          0.11845020	          0.11845060	          0.13148426	          0.09089529	          0.13487507	          0.05941329	          0.05941326	          0.05941326	          0.05941325	          0.05941330	          0.06081518	          0.05941325	          0.05787112	          0.05093647	          0.05000144	          0.54016456	          0.07060765	          0.08942254	          0.51321323	          0.79058661	          0.57298100	          0.73039072	          0.08878690	          0.21810751	          0.07055415	
          0.02259182	         -2.89951742	         -4.38208545	          9.50812739	          0.03600378	          0.88749264	         -0.00445293	        -13.36479771	         -4.26583981	         -6.70491748	         32.13787099	          2.23762453	         -9.13766125	        -21.68252329	        -16.93816616	         -2.72907130	         -1.97704656	        -16.03330032	        -11.30669058	          7.08140091	          7.42538389	         26.21004913	          3.78691953	         -4.11542889	          1.93769407	         -2.50679617	          9.32411274	        -13.52752480	         19.38431425	        -10.81956261	        -13.46703259	         10.97304504	         48.15298166	         14.79185364	         86.51662706	         86.51662706	          0.10243134	          0.05000012	          0.05000005	          0.17391079	          0.07426543	          0.05000040	          0.05000197	          0.05000087	          0.05000042	          0.05000020	          0.05000030	          0.46881311	          0.31389856	          0.33601774	          0.19749283	          0.12790872	          0.28861725	          0.05000051	          0.05000042	          0.05000109	          0.05000075	          0.05751091	          0.05000004	          0.62978132	          0.05000004	          0.05000050	          0.05000032	          0.47082014	          0.12322455	          0.12251786	          0.10290889	          0.31607787	          0.55667491	          0.10251507	          0.39451560	          0.98984139	          0.99626956	          0.47396746	          0.54664916	          0.48289366	          0.69087813	          0.05000002	          0.05000001	          0.57895901	          0.09649309	          0.05000000	          0.05000000	          0.25291428	          0.28363460	          0.32920013	          0.17745387	          0.18136695	          0.15157988	          0.12175225	          0.14558926	          0.09809399	          0.09742832	          0.08399655	          0.06126946	          0.06577438	          0.05000017	          0.25791580	          0.41184908	          0.05000035	          0.05941166	          0.25375731	          0.25298368	          0.33458325	          0.58327281	          0.09968331	          0.09968365	          0.11065238	          0.07649424	          0.11350596	          0.05000003	          0.05000001	          0.05000000	          0.05000000	          0.05000004	          0.05117981	          0.05000000	          0.06632523	          0.05000003	          0.05000002	          0.49044453	          0.05942080	          0.07525471	          0.43190129	          0.88054407	          0.75641509	          0.84620646	          0.13796571	          0.18444339	          0.05937577	
          0.03388773	         -2.90790776	         -4.38426645	          9.78979877	          0.05371385	          0.88613235	         -0.00373342	        -14.30863028	         -4.63969505	         -7.19337792	         32.50385039	          2.25746594	         -9.03830557	        -21.60100493	        -19.37516519	         -4.30501006	         -3.27865937	        -16.11403893	        -11.50899191	          6.90358782	          7.65106249	         26.35091321	          3.79235496	         -4.04451654	          2.05577638	         -2.66008546	          9.10964388	        -13.49378574	         19.38053283	        -11.78657170	        -13.45260780	         11.40724379	         49.27445393	         14.76690411	         86.51662706	         86.51662706	          0.08620245	          0.05000039	          0.05000067	          0.14635691	          0.06249912	          0.05000094	          0.05000111	          0.05000016	          0.05000020	          0.05000007	          0.05000033	          0.55093394	          0.49275723	          0.48413217	          0.22290033	          0.10856099	          0.29329986	          0.05000470	          0.05000051	          0.05001296	          0.05006600	          0.06890607	          0.15773866	          0.75594041	          0.15654899	          0.05000136	          0.05002904	          0.43975553	          0.13569159	          0.13284380	          0.11437418	          0.26599958	          0.47979364	          0.11064273	          0.42578205	          0.93854693	          0.99787201	          0.53105830	          0.53000244	          0.46000683	          0.82366723	          0.05000001	          0.05000002	          0.48723050	          0.13719104	          0.05000000	          0.05000001	          0.34663787	          0.40517729	          0.45296296	          0.15161731	          0.19215391	          0.20880559	          0.10246219	          0.12252256	          0.08255230	          0.08199207	          0.07068840	          0.05156245	          0.40195949	          0.40756987	          0.45136627	          0.47872699	          0.05000016	          0.05000187	          0.21355281	          0.36190030	          0.42800490	          0.71661039	          0.08388979	          0.08389008	          0.27597460	          0.06437482	          0.09552256	          0.05000002	          0.07080001	          0.06385307	          0.06372022	          0.05000000	          0.05000002	          0.05000000	          0.15187181	          0.05000009	          0.05000004	          0.53772534	          0.05000637	          0.06333166	          0.36347221	          0.93185863	          0.77082876	          0.84515249	          0.15681986	          0.15522075	          0.05000000	
